inDegrees=yes
name=ik_S53_A01_T01
DataType=double
version=3
OpenSimVersion=4.3-2021-08-27-4bc7ad9
endheader
time	pelvis_tilt	pelvis_list	pelvis_rotation	pelvis_tx	pelvis_ty	pelvis_tz	hip_flexion_r	hip_adduction_r	hip_rotation_r	knee_angle_r	knee_angle_r_beta	ankle_angle_r	subtalar_angle_r	mtp_angle_r	hip_flexion_l	hip_adduction_l	hip_rotation_l	knee_angle_l	knee_angle_l_beta	ankle_angle_l	subtalar_angle_l	mtp_angle_l	lumbar_extension	lumbar_bending	lumbar_rotation	arm_flex_r	arm_add_r	arm_rot_r	elbow_flex_r	pro_sup_r	wrist_flex_r	wrist_dev_r	arm_flex_l	arm_add_l	arm_rot_l	elbow_flex_l	pro_sup_l	wrist_flex_l	wrist_dev_l
0	0	0	0	0	0.9399999999999999	0	0	0	0	0	0	0	0	0	0	0	0	0	0	0	0	0	0	0	0	0	0	0	0	89.99999999963507	0	0	0	0	0	0	89.99999999869995	0	0
0.01666666666666667	-1.60960435705825	0.6637208664428563	-80.98982153852805	0	0.9399999999999999	0	-6.904398573217597	-3.141200252083827	-6.388813694151608	-5.535123754389917	-0.09660613401945399	0	0	0	-0.2759611162130889	-4.491227046397563	-7.265750059694555	-1.380688217229063	-0.02409755533413785	0	0	0	0	0	0	1.914013655065454	-1.914013655065454	0.3412292367762106	9.551750696501522	89.65877078291378	0	0	1.914013655065454	-1.914013655065454	0.3412292367762106	9.551750696501522	89.65877078204262	0	0
0.03333333333333333	-1.607325941456132	0.6951974116123095	-81.02873027915287	0	0.9399999999999999	0	-6.852974558973733	-3.143861803474436	-6.401644567276285	-5.506433124709633	-0.09610538806706263	0	0	0	-0.2392817681149924	-4.49037966795758	-7.298502876661957	-1.377600124330715	-0.02404365794545422	0	0	0	0	0	0	1.978157309389451	-1.978157309389451	0.3532356107467837	9.761878158595872	89.64676440965212	0	0	1.978157309389451	-1.978157309389451	0.3532356107467837	9.761878158595872	89.64676440878323	0	0
0.05	-1.609219692764525	0.6957167899806489	-81.06063524968738	0	0.9399999999999999	0	-6.852027363625795	-3.148633177508291	-6.378697954030504	-5.523199135600915	-0.09639801015954073	0	0	0	-0.2564143426735175	-4.49325980140843	-7.319693288412079	-1.411283961696677	-0.02463155181219656	0	0	0	0	0	0	2.035127200247424	-2.035127200247424	0.3638811683315252	9.943026747241875	89.63611885269566	0	0	2.035127200247424	-2.035127200247424	0.3638811683315252	9.943026747241875	89.6361188518288	0	0
0.06666666666666667	-1.594131228727084	0.699935778057807	-81.08657309708124	0	0.9399999999999999	0	-6.852036928362851	-3.176852737595687	-6.3828474687898	-5.530018472661316	-0.09651703004404801	0	0	0	-0.2574497018500545	-4.476991906157036	-7.328096653879821	-1.414123684531703	-0.02468111432551182	0	0	0	0	0	0	2.094969873886362	-2.094969873886362	0.3750557744185947	10.13288334224007	89.62494424726798	0	0	2.094969873886362	-2.094969873886362	0.3750557744185947	10.13288334224007	89.62494424640323	0	0
0.08333333333333333	-1.581354337232481	0.6952506685218914	-81.11903516050994	0	0.9399999999999999	0	-6.856894666058901	-3.201961087371799	-6.365231429494094	-5.534989739031349	-0.09660379501019874	0	0	0	-0.275807420560022	-4.465699245103744	-7.359973541019588	-1.421742449193487	-0.02481408685379454	0	0	0	0	0	0	2.154606764354669	-2.154606764354669	0.386178983077076	10.32318221656365	89.61382103926572	0	0	2.154606764354669	-2.154606764354669	0.386178983077076	10.32318221656365	89.61382103840306	0	0
0.09999999999999999	-1.568036045863012	0.6895465666680526	-81.15381330064955	0	0.9399999999999999	0	-6.856868912818365	-3.220027049514381	-6.336517260318083	-5.529974247515063	-0.0965162581696337	0	0	0	-0.2936214843448413	-4.444571581868291	-7.395931969160243	-1.420020496924145	-0.02478403311713233	0	0	0	0	0	0	2.216939736718106	-2.216939736718106	0.3977922918235505	10.52487132632003	89.60220773120422	0	0	2.216939736718106	-2.216939736718106	0.3977922918235505	10.52487132632003	89.60220773034371	0	0
0.1166666666666667	-1.556075072413508	0.7144032204681857	-81.13601422591303	0	0.9399999999999999	0	-6.714145912393493	-3.255618103708447	-6.391187396827695	-5.300521033693732	-0.09251154410916891	0	0	0	-0.1941554624100964	-4.436750993978317	-7.402406578472887	-1.273658305917658	-0.02222953098363632	0	0	0	0	0	0	2.421122883049131	-2.421122883049131	0.4362285519204619	11.52113581775107	89.56377147338389	0	0	2.421122883049131	-2.421122883049131	0.4362285519204619	11.52113581775107	89.56377147252849	0	0
0.1333333333333333	-1.564899939138823	0.6821789197605858	-81.19616356816231	0	0.9399999999999999	0	-6.736204655465351	-3.255224330625905	-6.352405112335889	-5.251395237990027	-0.09165413722647718	0	0	0	-0.2437106787094687	-4.438997242355224	-7.464717611647936	-1.318255844106145	-0.02300790486330931	0	0	0	0	0	0	2.531247087834484	-2.531247087834484	0.457272936362148	12.11410073203707	89.54272709019241	0	0	2.531247087834484	-2.531247087834484	0.457272936362148	12.11410073203707	89.54272708934104	0	0
0.15	-1.548826583532759	0.646059518905749	-81.17353524932687	0	0.9399999999999999	0	-6.939143116090209	-3.239659085519087	-6.308493230873061	-5.576507849636816	-0.09732842273947132	0	0	0	-0.3816044490955397	-4.416677590852557	-7.416035660075298	-1.475072230368869	-0.02574486712467306	0	0	0	0	0	0	2.645682759286529	-2.645682759286529	0.4789961836434094	12.67089707506162	89.5210038441996	0	0	2.645682759286529	-2.645682759286529	0.4789961836434094	12.67089707506162	89.52100384335206	0	0
0.1666666666666667	-1.546370705566473	0.6400257610191447	-81.20367724990423	0	0.9399999999999999	0	-6.909510410195494	-3.264242436297249	-6.276212817149786	-5.50160001034116	-0.09602103430820731	0	0	0	-0.3562313794969322	-4.416832966476718	-7.444835328925882	-1.407347015332743	-0.02456283913567149	0	0	0	0	0	0	2.775804766469226	-2.775804766469226	0.5037673725096004	13.35420703495346	89.49623265680363	0	0	2.775804766469226	-2.775804766469226	0.5037673725096004	13.35420703495346	89.49623265596105	0	0
0.1833333333333333	-1.548052508246905	0.6228892870141788	-81.229419121238	0	0.9399999999999999	0	-6.921766399262714	-3.267433506971607	-6.254197757373623	-5.492378576823132	-0.09586008993156397	0	0	0	-0.3683121190953362	-4.420969204308207	-7.469386897147968	-1.384881181732231	-0.02417073637013737	0	0	0	0	0	0	2.833006614328852	-2.833006614328852	0.5143636499514278	13.55264928923016	89.48563637998595	0	0	2.833006614328852	-2.833006614328852	0.5143636499514278	13.55264928923016	89.48563637914535	0	0
0.2	-1.554248783287797	0.601955477026089	-81.26127713863343	0	0.9399999999999999	0	-6.932560474069569	-3.271237467482004	-6.22289295776973	-5.483837514287542	-0.09571102026869918	0	0	0	-0.3831852719855573	-4.421348190578517	-7.491190931461585	-1.349262071850703	-0.02354906562607507	0	0	0	0	0	0	2.889688940857348	-2.889688940857348	0.5248598984884852	13.74892513582066	89.47514013206708	0	0	2.889688940857348	-2.889688940857348	0.5248598984884852	13.74892513582066	89.47514013122849	0	0
0.2166666666666666	-1.540052812010527	0.5804588098217077	-81.2984893001489	0	0.9399999999999999	0	-6.946487598278915	-3.281860746552845	-6.185832264202895	-5.446455162916545	-0.09505857515513788	0	0	0	-0.4281158908402973	-4.404300392343733	-7.530382488027533	-1.377127405488295	-0.02403540744521777	0	0	0	0	0	0	2.957302469416216	-2.957302469416216	0.5373550213620237	13.99682039781373	89.46264500992937	0	0	2.957302469416216	-2.957302469416216	0.5373550213620237	13.99682039781373	89.46264500909307	0	0
0.2333333333333333	-1.549735472907899	0.5866893008453088	-81.32164904027165	0	0.9399999999999999	0	-6.956297792544877	-3.283392186564114	-6.182301063242283	-5.473029856553363	-0.09552239105680914	0	0	0	-0.4876049950194386	-4.398225271336794	-7.52587087796068	-1.38586680145483	-0.02418793867946932	0	0	0	0	0	0	3.013690428188263	-3.013690428188263	0.5477537818283862	14.1808201686334	89.45224625007477	0	0	3.013690428188263	-3.013690428188263	0.5477537818283862	14.1808201686334	89.4522462492404	0	0
0.25	-1.54191906775457	0.5670042794858194	-81.35464494442365	0	0.9399999999999999	0	-6.981580717083047	-3.289601043354014	-6.175900599896633	-5.4639120777801	-0.09536325579674725	0	0	0	-0.512869046260167	-4.389700123404769	-7.543303001138416	-1.344015504749748	-0.02345749575573659	0	0	0	0	0	0	3.071487099974685	-3.071487099974685	0.5584229148508244	14.37784022177268	89.44157711768017	0	0	3.071487099974685	-3.071487099974685	0.5584229148508244	14.37784022177268	89.44157711684782	0	0
